<?xml version="1.0" encoding="UTF-8" standalone="no"?>
<svg width="12px" height="20px" viewBox="0 0 12 20" version="1.1" xmlns="http://www.w3.org/2000/svg" xmlns:xlink="http://www.w3.org/1999/xlink">
    <!-- Generator: Sketch 39.1 (31720) - http://www.bohemiancoding.com/sketch -->
    <title>Shape</title>
    <desc>Created with Sketch.</desc>
    <defs></defs>
    <g id="Page-1" stroke="none" stroke-width="1" fill="none" fill-rule="evenodd">
        <g id="La-moving-v2-—--Design-(desktop)" transform="translate(-308.000000, -3079.000000)" fill="#0E496F">
            <g id="Group-39" transform="translate(260.000000, 3044.000000)">
                <g id="man" transform="translate(28.000000, 35.000000)">
                    <g id="Man">
                        <path d="M26,4 C27.104,4 28,3.104 28,2 C28,0.895 27.104,0 26,0 C24.896,0 24,0.895 24,2 C24,3.104 24.896,4 26,4 L26,4 Z M31.978,11.583 C31.593,9.808 30.92,6.895 29.936,5.689 C28.979,4.516 27.051,4.467 26,4.467 L26,4.467 C24.949,4.467 23.021,4.516 22.064,5.689 C21.08,6.895 20.407,9.808 20.022,11.583 C19.809,12.566 21.176,12.927 21.533,11.938 C22.064,10.465 22.474,9.228 23.372,8.202 C23.844,11.109 22.102,16.168 22,19 C22,19.552 22.448,20 23,20 C23.426,20 23.79,19.734 23.934,19.358 C24.391,17.771 26,13.355 26,13.355 L26,13.355 L26,13.355 C26,13.355 27.609,17.771 28.066,19.358 C28.21,19.734 28.574,20 29,20 C29.552,20 30,19.552 30,19 C29.898,16.168 28.156,11.109 28.628,8.203 C29.526,9.229 29.936,10.466 30.467,11.939 C30.823,12.927 32.191,12.566 31.978,11.583 L31.978,11.583 Z" id="Shape"></path>
                    </g>
                </g>
            </g>
        </g>
    </g>
</svg>