<?xml version="1.0" encoding="UTF-8" standalone="no"?>
<svg width="138px" height="115px" viewBox="0 0 138 115" version="1.1" xmlns="http://www.w3.org/2000/svg" xmlns:xlink="http://www.w3.org/1999/xlink">
    <!-- Generator: sketchtool 39.1 (31720) - http://www.bohemiancoding.com/sketch -->
    <title>2A08D604-907E-4963-AB42-0EFB27CB3B68</title>
    <desc>Created with sketchtool.</desc>
    <defs></defs>
    <g id="Design-v2" stroke="none" stroke-width="1" fill="none" fill-rule="evenodd">
        <g id="La-moving-v2-—--Design-(desktop)" transform="translate(-651.000000, -138.000000)" fill="#FFFFFF">
            <g id="Group-2" transform="translate(651.000000, 138.000000)">
                <g id="Group" transform="translate(0.000000, 25.414177)">
                    <path d="M61.0618998,89.4887065 L-2.84217094e-14,89.4887089 L-2.84217094e-14,-7.10542736e-15 L22.908,-7.10542736e-15 L22.908,70.440398 L45.7295173,70.5644676 L76.3767978,-7.10542736e-15 L99.9282809,-7.10542736e-15 L137.893787,89.4887089 L113.441427,89.4887089 L105.456034,70.6868385 L68.4007079,70.6868385 L45.7295173,70.5644676 Z M100.314371,51.117922 L74.3176517,51.117922 L87.4447079,18.0070997 L100.314371,51.117922 Z" id="Combined-Shape"></path>
                    <path d="M65.1763146,79.323038 L65.1763146,72.8447332 L63.3714607,72.8447332 L61.6038202,76.6984466 L59.8361798,72.8447332 L58.0220225,72.8447332 L58.0220225,79.323038 L59.5012584,79.323038 L59.5012584,75.1181468 L61.0642247,78.6761316 L62.1434157,78.6761316 L63.706382,75.1181468 L63.7156854,79.323038 L65.1763146,79.323038 Z M70.1582697,72.7985256 C68.1487416,72.7985256 66.6415955,74.1939949 66.6415955,76.0792648 C66.6415955,77.9737762 68.1487416,79.3969701 70.1582697,79.3969701 C72.1771011,79.3969701 73.6842472,77.9645347 73.6842472,76.0792648 C73.6842472,74.2032365 72.1771011,72.7985256 70.1582697,72.7985256 L70.1582697,72.7985256 Z M70.1768764,74.1755119 C71.1816404,74.1755119 71.9817303,74.9980071 71.9817303,76.0885063 C71.9817303,77.1790056 71.1816404,78.0199838 70.1768764,78.0199838 C69.1814157,78.0199838 68.334809,77.1790056 68.334809,76.0885063 C68.334809,74.9980071 69.1721124,74.1755119 70.1768764,74.1755119 L70.1768764,74.1755119 Z M78.6289888,79.323038 L81.1874157,72.8539747 L79.4848989,72.8539747 L77.8195955,77.613357 L76.1542921,72.8539747 L74.3866517,72.8539747 L76.9171685,79.323038 L78.6289888,79.323038 Z M84.066809,79.323038 L84.066809,72.8539747 L82.410809,72.8539747 L82.410809,79.323038 L84.066809,79.323038 Z M91.9607191,79.323038 L91.9607191,72.8539747 L90.4163596,72.8539747 L90.4163596,76.8463109 L87.4113708,72.8539747 L85.9507416,72.8539747 L85.9507416,79.323038 L87.5044045,79.323038 L87.5044045,75.3399433 L90.5000899,79.323038 L91.9607191,79.323038 Z M98.1707191,76.0330572 L98.1707191,77.7057722 C97.7799775,77.8998441 97.3520225,78.0199838 97.0171011,78.0199838 C95.9379101,78.0199838 95.1099101,77.1882471 95.1099101,76.0885063 C95.1099101,75.0072486 95.9286067,74.1755119 96.9984944,74.1755119 C97.6032135,74.1755119 98.2637528,74.4435159 98.7382247,74.8778673 L99.6685618,73.7596435 C98.9987191,73.1681863 97.9753483,72.7985256 97.0077978,72.7985256 C94.9517528,72.7985256 93.4166966,74.212478 93.4166966,76.0885063 C93.4166966,77.9737762 94.9145393,79.3969701 96.8961573,79.3969701 C97.8078876,79.3969701 98.9056854,79.0457924 99.6034382,78.5559919 L99.6034382,76.0330572 L98.1707191,76.0330572 Z M67.2757753,81.269918 C65.2941573,81.269918 63.7963146,82.6746289 63.7963146,84.5414157 C63.7963146,86.4359271 65.2569438,87.8683625 67.2199551,87.8683625 C68.1782022,87.8683625 69.2108764,87.3970451 69.9086292,86.6854481 L68.9410787,85.668881 C68.4852135,86.130957 67.8525843,86.4266856 67.3036854,86.4266856 C66.2710112,86.4266856 65.4895281,85.6041904 65.4895281,84.5229327 C65.4895281,83.460158 66.2710112,82.6469043 67.3036854,82.6469043 C67.8804944,82.6469043 68.5131236,82.9703575 68.9410787,83.4878825 L69.8993258,82.3604172 C69.2480899,81.6950278 68.2433258,81.269918 67.2757753,81.269918 L67.2757753,81.269918 Z M76.3419101,82.6191797 L76.3419101,81.3253671 L71.2436629,81.3253671 L71.2436629,87.7944304 L76.4442472,87.7944304 L76.4442472,86.5006177 L72.8996629,86.5006177 L72.8996629,85.1975635 L76.0069888,85.1975635 L76.0069888,83.9037509 L72.8996629,83.9037509 L72.8996629,82.6191797 L76.3419101,82.6191797 Z M84.105573,87.7944304 L84.105573,81.3253671 L82.5612135,81.3253671 L82.5612135,85.3177033 L79.5562247,81.3253671 L78.0955955,81.3253671 L78.0955955,87.7944304 L79.6492584,87.7944304 L79.6492584,83.8113357 L82.6449438,87.7944304 L84.105573,87.7944304 Z M90.966809,82.6469043 L90.966809,81.3161256 L85.4033933,81.3161256 L85.4033933,82.6469043 L87.3477978,82.6469043 L87.3477978,87.7944304 L89.0037978,87.7944304 L89.0037978,82.6469043 L90.966809,82.6469043 Z M96.1813483,87.7944304 L98.0606292,87.7944304 L96.6930337,85.6596395 C97.4559101,85.2807372 97.8745618,84.5691403 97.8745618,83.5802977 C97.8745618,82.1386208 96.8884045,81.3253671 95.1672809,81.3253671 L92.2553258,81.3253671 L92.2553258,87.7944304 L93.9113258,87.7944304 L93.9113258,85.9738511 L95.1672809,85.9738511 L95.2137978,85.9738511 L96.1813483,87.7944304 Z M93.9113258,84.6800385 L93.9113258,82.6191797 L95.1672809,82.6191797 C95.8836404,82.6191797 96.3022921,82.9611159 96.3022921,83.6357468 C96.3022921,84.3196192 95.8836404,84.6800385 95.1672809,84.6800385 L93.9113258,84.6800385 Z M104.670674,82.6191797 L104.670674,81.3253671 L99.572427,81.3253671 L99.572427,87.7944304 L104.773011,87.7944304 L104.773011,86.5006177 L101.228427,86.5006177 L101.228427,85.1975635 L104.335753,85.1975635 L104.335753,83.9037509 L101.228427,83.9037509 L101.228427,82.6191797 L104.670674,82.6191797 Z" id="MOVING-CENTRE"></path>
                </g>
                <path d="M15.7618484,6.31965873 L15.7618484,0.693113924 L14.1694214,0.693113924 L14.1694214,7.70126582 L18.7854439,7.70126582 L18.7854439,6.31965873 L15.7618484,6.31965873 Z M23.3906124,0.643055696 C21.2337809,0.643055696 19.6010394,2.15481418 19.6010394,4.19718987 C19.6010394,6.22955392 21.2337809,7.77134734 23.3906124,7.77134734 C25.5474439,7.77134734 27.1801854,6.21954228 27.1801854,4.19718987 C27.1801854,2.16482582 25.5474439,0.643055696 23.3906124,0.643055696 L23.3906124,0.643055696 Z M23.4107697,2.02466278 C24.589972,2.02466278 25.5474439,2.96575747 25.5474439,4.19718987 C25.5474439,5.42862228 24.589972,6.38974025 23.4107697,6.38974025 C22.2315675,6.38974025 21.2337809,5.42862228 21.2337809,4.19718987 C21.2337809,2.96575747 22.2214888,2.02466278 23.4107697,2.02466278 L23.4107697,2.02466278 Z M31.1806349,0.623032405 C29.5478933,0.623032405 28.4493203,1.42396405 28.4493203,2.69544304 C28.4493203,5.17833114 32.2086573,4.40743443 32.2086573,5.72897165 C32.2086573,6.15947241 31.8155899,6.3997519 31.1604776,6.3997519 C30.4146573,6.3997519 29.3866349,5.98927443 28.6609719,5.34852911 L28.0260169,6.64003139 C28.8222304,7.31081165 29.9812753,7.75132405 31.1403203,7.75132405 C32.7025113,7.75132405 33.9018708,7.01046228 33.9018708,5.63886684 C33.9119495,3.11593215 30.1526124,3.83677063 30.1526124,2.54526835 C30.1526124,2.16482582 30.5154439,1.97460456 31.0496124,1.97460456 C31.6140169,1.97460456 32.5009382,2.25493063 33.2467585,2.69544304 L33.8615562,1.38391747 C33.1560506,0.923381772 32.1683427,0.623032405 31.1806349,0.623032405 L31.1806349,0.623032405 Z M42.8501629,6.33968203 L43.4044888,7.70126582 L45.1077809,7.70126582 L42.0942641,0.693113924 L40.4514438,0.693113924 L37.3875337,7.70126582 L39.0303539,7.70126582 L39.5846798,6.33968203 L42.8501629,6.33968203 Z M42.3361517,5.06820304 L40.1087697,5.06820304 L41.2275,2.34503544 L42.3361517,5.06820304 Z M52.6055225,7.70126582 L52.6055225,0.693113924 L51.0937247,0.693113924 L51.0937247,5.19835443 L47.6669832,0.693113924 L46.2156573,0.693113924 L46.2156573,7.70126582 L47.7375337,7.70126582 L47.7375337,3.20603696 L51.1541966,7.70126582 L52.6055225,7.70126582 Z M59.266736,4.16715494 L59.266736,6.00929772 C58.8131966,6.23956557 58.309264,6.38974025 57.8859607,6.38974025 C56.6362079,6.38974025 55.6585787,5.43863392 55.6585787,4.19718987 C55.6585787,2.96575747 56.6261292,2.01465114 57.875882,2.01465114 C58.5612303,2.01465114 59.2868933,2.31500051 59.8109831,2.79555949 L60.7079831,1.66424354 C59.9923989,1.04352152 58.9240618,0.643055696 57.875882,0.643055696 C55.678736,0.643055696 54.0258371,2.17483747 54.0258371,4.19718987 C54.0258371,6.22955392 55.6485,7.77134734 57.7851742,7.77134734 C58.7628034,7.77134734 59.901691,7.40091646 60.6475112,6.86028759 L60.6475112,4.16715494 L59.266736,4.16715494 Z M67.7824213,2.00463949 L67.7824213,0.693113924 L62.4105,0.693113924 L62.4105,7.70126582 L67.8932865,7.70126582 L67.8932865,6.38974025 L64.002927,6.38974025 L64.002927,4.83793519 L67.4095112,4.83793519 L67.4095112,3.52640962 L64.002927,3.52640962 L64.002927,2.00463949 L67.7824213,2.00463949 Z M71.1076011,6.31965873 L71.1076011,0.693113924 L69.5151741,0.693113924 L69.5151741,7.70126582 L74.1311966,7.70126582 L74.1311966,6.31965873 L71.1076011,6.31965873 Z M80.822646,2.00463949 L80.822646,0.693113924 L75.4507247,0.693113924 L75.4507247,7.70126582 L80.9335112,7.70126582 L80.9335112,6.38974025 L77.0431517,6.38974025 L77.0431517,4.83793519 L80.4497359,4.83793519 L80.4497359,3.52640962 L77.0431517,3.52640962 L77.0431517,2.00463949 L80.822646,2.00463949 Z M85.1355337,0.623032405 C83.5027921,0.623032405 82.4042191,1.42396405 82.4042191,2.69544304 C82.4042191,5.17833114 86.1635561,4.40743443 86.1635561,5.72897165 C86.1635561,6.15947241 85.7704887,6.3997519 85.1153764,6.3997519 C84.3695561,6.3997519 83.3415337,5.98927443 82.6158708,5.34852911 L81.9809157,6.64003139 C82.7771292,7.31081165 83.9361741,7.75132405 85.0952191,7.75132405 C86.6574101,7.75132405 87.8567696,7.01046228 87.8567696,5.63886684 C87.8668483,3.11593215 84.1075112,3.83677063 84.1075112,2.54526835 C84.1075112,2.16482582 84.4703427,1.97460456 85.0045112,1.97460456 C85.5689157,1.97460456 86.455837,2.25493063 87.2016573,2.69544304 L87.816455,1.38391747 C87.1109494,0.923381772 86.1232415,0.623032405 85.1355337,0.623032405 L85.1355337,0.623032405 Z M8.01679219,19.2531646 L8.01679219,12.2450127 L6.24294949,12.2450127 L4.1969832,16.529997 L2.14093826,12.2450127 L0.357016908,12.2450127 L0.357016908,19.2531646 L1.7982641,19.2531646 L1.7982641,14.5276678 L3.67289331,18.5423377 L4.71099444,18.5423377 L6.58562365,14.5276678 L6.58562365,19.2531646 L8.01679219,19.2531646 Z M13.2367585,12.1949544 C11.079927,12.1949544 9.44718544,13.7067129 9.44718544,15.7490886 C9.44718544,17.7814527 11.079927,19.3232461 13.2367585,19.3232461 C15.3935899,19.3232461 17.0263315,17.771441 17.0263315,15.7490886 C17.0263315,13.7167246 15.3935899,12.1949544 13.2367585,12.1949544 L13.2367585,12.1949544 Z M13.2569158,13.5765615 C14.436118,13.5765615 15.3935899,14.5176562 15.3935899,15.7490886 C15.3935899,16.980521 14.436118,17.941639 13.2569158,17.941639 C12.0777135,17.941639 11.079927,16.980521 11.079927,15.7490886 C11.079927,14.5176562 12.0676349,13.5765615 13.2569158,13.5765615 L13.2569158,13.5765615 Z M21.9842528,19.2531646 L24.786118,12.2450127 L23.1432978,12.2450127 L21.2081967,17.5311615 L19.2831742,12.2450127 L17.5698034,12.2450127 L20.3414326,19.2531646 L21.9842528,19.2531646 Z M27.526736,19.2531646 L27.526736,12.2450127 L25.934309,12.2450127 L25.934309,19.2531646 L27.526736,19.2531646 Z M35.850927,19.2531646 L35.850927,12.2450127 L34.3391292,12.2450127 L34.3391292,16.7502532 L30.9123877,12.2450127 L29.4610618,12.2450127 L29.4610618,19.2531646 L30.9829382,19.2531646 L30.9829382,14.7579357 L34.3996011,19.2531646 L35.850927,19.2531646 Z M42.5121405,15.7190537 L42.5121405,17.5611965 C42.0586011,17.7914643 41.5546686,17.941639 41.1313652,17.941639 C39.8816124,17.941639 38.9039832,16.9905327 38.9039832,15.7490886 C38.9039832,14.5176562 39.8715337,13.5665499 41.1212865,13.5665499 C41.8066348,13.5665499 42.5322978,13.8668992 43.0563877,14.3474582 L43.9533877,13.2161423 C43.2378034,12.5954203 42.1694663,12.1949544 41.1212865,12.1949544 C38.9241405,12.1949544 37.2712416,13.7267362 37.2712416,15.7490886 C37.2712416,17.7814527 38.8939045,19.3232461 41.0305787,19.3232461 C42.0082079,19.3232461 43.1470955,18.9528152 43.8929157,18.4121863 L43.8929157,15.7190537 L42.5121405,15.7190537 Z M51.7123989,12.1949544 C49.5757247,12.1949544 47.9530618,13.7167246 47.9530618,15.739077 C47.9530618,17.771441 49.5454888,19.3232461 51.651927,19.3232461 C52.6799494,19.3232461 53.7583652,18.8326754 54.5041854,18.0717904 L53.5668708,17.0606142 C53.0629382,17.5611965 52.3675112,17.8815691 51.7325562,17.8815691 C50.523118,17.8815691 49.5858034,16.9404744 49.5858034,15.7190537 C49.5858034,14.4976329 50.523118,13.5665499 51.7325562,13.5665499 C52.3876685,13.5665499 53.0830955,13.9269691 53.5668708,14.4776096 L54.4941067,13.3563053 C53.7986798,12.6454785 52.7303427,12.1949544 51.7123989,12.1949544 L51.7123989,12.1949544 Z M58.9682528,12.1949544 C56.8114213,12.1949544 55.1786798,13.7067129 55.1786798,15.7490886 C55.1786798,17.7814527 56.8114213,19.3232461 58.9682528,19.3232461 C61.1250843,19.3232461 62.7578258,17.771441 62.7578258,15.7490886 C62.7578258,13.7167246 61.1250843,12.1949544 58.9682528,12.1949544 L58.9682528,12.1949544 Z M58.9884101,13.5765615 C60.1676123,13.5765615 61.1250843,14.5176562 61.1250843,15.7490886 C61.1250843,16.980521 60.1676123,17.941639 58.9884101,17.941639 C57.8092079,17.941639 56.8114213,16.980521 56.8114213,15.7490886 C56.8114213,14.5176562 57.7991292,13.5765615 58.9884101,13.5765615 L58.9884101,13.5765615 Z M71.8379157,19.2531646 L71.8379157,12.2450127 L70.064073,12.2450127 L68.0181067,16.529997 L65.9620618,12.2450127 L64.1781404,12.2450127 L64.1781404,19.2531646 L65.6193876,19.2531646 L65.6193876,14.5276678 L67.4940168,18.5423377 L68.532118,18.5423377 L70.4067472,14.5276678 L70.4067472,19.2531646 L71.8379157,19.2531646 Z M73.7722415,12.2450127 L73.7722415,19.2531646 L75.3646685,19.2531646 L75.3646685,17.2508354 L76.7656011,17.2508354 C78.5596011,17.2508354 79.5876236,16.3097408 79.5876236,14.6778425 C79.5876236,13.1260375 78.5596011,12.2450127 76.7656011,12.2450127 L73.7722415,12.2450127 Z M75.3646685,13.5565382 L76.6849719,13.5565382 C77.5718932,13.5565382 78.0758258,13.9469924 78.0758258,14.7279008 C78.0758258,15.5288324 77.5718932,15.9292982 76.6849719,15.9292982 L75.3646685,15.9292982 L75.3646685,13.5565382 Z M85.1401854,17.8915808 L85.6945112,19.2531646 L87.3978033,19.2531646 L84.3842865,12.2450127 L82.7414663,12.2450127 L79.6775561,19.2531646 L81.3203764,19.2531646 L81.8747022,17.8915808 L85.1401854,17.8915808 Z M84.6261741,16.6201018 L82.3987921,16.6201018 L83.5175224,13.8969342 L84.6261741,16.6201018 Z M94.8955449,19.2531646 L94.8955449,12.2450127 L93.3837471,12.2450127 L93.3837471,16.7502532 L89.9570056,12.2450127 L88.5056797,12.2450127 L88.5056797,19.2531646 L90.0275561,19.2531646 L90.0275561,14.7579357 L93.4442191,19.2531646 L94.8955449,19.2531646 Z M100.216298,16.9905327 L102.786354,12.2450127 L101.183848,12.2450127 L99.4200842,15.3886694 L97.6160056,12.2450127 L96.0134999,12.2450127 L98.6238707,17.0305792 L98.6238707,19.2531646 L100.216298,19.2531646 L100.216298,16.9905327 Z" id="Los-Angeles-Moving-C"></path>
            </g>
        </g>
    </g>
</svg>