<?xml version="1.0" encoding="UTF-8" standalone="no"?>
<svg width="60px" height="39px" viewBox="0 0 60 39" version="1.1" xmlns="http://www.w3.org/2000/svg" xmlns:xlink="http://www.w3.org/1999/xlink">
    <!-- Generator: sketchtool 39.1 (31720) - http://www.bohemiancoding.com/sketch -->
    <title>4B9E94D3-3AEA-4845-87DB-C06753F15A14</title>
    <desc>Created with sketchtool.</desc>
    <defs></defs>
    <g id="Design-v2" stroke="none" stroke-width="1" fill="none" fill-rule="evenodd">
        <g id="Menu-scroll" transform="translate(-260.000000, -7.000000)" fill="#FFFFFF">
            <g id="Group-2">
                <g id="Group" transform="translate(260.000000, 7.000000)">
                    <path d="M26.5486521,38.9081333 L-1.19453561e-14,38.9081343 L-1.19453561e-14,-2.98633903e-15 L9.96,-2.98633903e-15 L9.96,30.62626 L19.8823988,30.6802033 L33.2073034,-2.98633903e-15 L43.4470787,-2.98633903e-15 L59.9538202,38.9081343 L49.3223596,38.9081343 L45.8504494,30.733408 L29.7394382,30.733408 L19.8823988,30.6802033 Z M43.6149438,22.2251835 L32.3120225,22.2251835 L38.0194382,7.8291738 L43.6149438,22.2251835 Z" id="Combined-Shape"></path>
                    <path d="M28.3375281,34.4882774 L28.3375281,31.6716231 L27.552809,31.6716231 L26.7842697,33.3471507 L26.0157303,31.6716231 L25.2269663,31.6716231 L25.2269663,34.4882774 L25.8701124,34.4882774 L25.8701124,32.6600638 L26.5496629,34.2070138 L27.0188764,34.2070138 L27.698427,32.6600638 L27.7024719,34.4882774 L28.3375281,34.4882774 Z M30.5035955,31.6515329 C29.6298876,31.6515329 28.9746067,32.2582587 28.9746067,33.0779412 C28.9746067,33.9016418 29.6298876,34.5204218 30.5035955,34.5204218 C31.3813483,34.5204218 32.0366292,33.8976238 32.0366292,33.0779412 C32.0366292,32.2622767 31.3813483,31.6515329 30.5035955,31.6515329 L30.5035955,31.6515329 Z M30.5116854,32.2502226 C30.9485393,32.2502226 31.2964045,32.6078292 31.2964045,33.0819593 C31.2964045,33.5560894 30.9485393,33.9217321 30.5116854,33.9217321 C30.0788764,33.9217321 29.7107865,33.5560894 29.7107865,33.0819593 C29.7107865,32.6078292 30.0748315,32.2502226 30.5116854,32.2502226 L30.5116854,32.2502226 Z M34.1865169,34.4882774 L35.2988764,31.6756412 L34.5586517,31.6756412 L33.8346067,33.7449378 L33.1105618,31.6756412 L32.3420225,31.6756412 L33.4422472,34.4882774 L34.1865169,34.4882774 Z M36.5507865,34.4882774 L36.5507865,31.6756412 L35.8307865,31.6756412 L35.8307865,34.4882774 L36.5507865,34.4882774 Z M39.9829213,34.4882774 L39.9829213,31.6756412 L39.3114607,31.6756412 L39.3114607,33.4114395 L38.0049438,31.6756412 L37.3698876,31.6756412 L37.3698876,34.4882774 L38.0453933,34.4882774 L38.0453933,32.7564971 L39.3478652,34.4882774 L39.9829213,34.4882774 Z M42.6829213,33.057851 L42.6829213,33.7851183 C42.5130337,33.8694974 42.3269663,33.9217321 42.1813483,33.9217321 C41.7121348,33.9217321 41.3521348,33.5601074 41.3521348,33.0819593 C41.3521348,32.6118472 41.7080899,32.2502226 42.1732584,32.2502226 C42.4361798,32.2502226 42.7233708,32.3667461 42.9296629,32.5555945 L43.3341573,32.0694102 C43.0429213,31.8122549 42.5979775,31.6515329 42.1773034,31.6515329 C41.2833708,31.6515329 40.6159551,32.2662948 40.6159551,33.0819593 C40.6159551,33.9016418 41.267191,34.5204218 42.128764,34.5204218 C42.5251685,34.5204218 43.0024719,34.3677358 43.3058427,34.1547791 L43.3058427,33.057851 L42.6829213,33.057851 Z M29.2503371,35.3347469 C28.388764,35.3347469 27.7375281,35.9454908 27.7375281,36.7571373 C27.7375281,37.5808379 28.3725843,38.2036359 29.2260674,38.2036359 C29.6426966,38.2036359 30.0916854,37.9987152 30.3950562,37.6893253 L29.974382,37.2473396 C29.7761798,37.4482422 29.5011236,37.5768198 29.2624719,37.5768198 C28.8134831,37.5768198 28.4737079,37.2192132 28.4737079,36.7491012 C28.4737079,36.2870252 28.8134831,35.9334367 29.2624719,35.9334367 C29.5132584,35.9334367 29.7883146,36.0740685 29.974382,36.2990794 L30.3910112,35.8088771 C30.1078652,35.5195773 29.6710112,35.3347469 29.2503371,35.3347469 L29.2503371,35.3347469 Z M33.1921348,35.9213825 L33.1921348,35.3588553 L30.9755056,35.3588553 L30.9755056,38.1714915 L33.2366292,38.1714915 L33.2366292,37.6089642 L31.6955056,37.6089642 L31.6955056,37.0424189 L33.0465169,37.0424189 L33.0465169,36.4798917 L31.6955056,36.4798917 L31.6955056,35.9213825 L33.1921348,35.9213825 Z M36.5676404,38.1714915 L36.5676404,35.3588553 L35.8961798,35.3588553 L35.8961798,37.0946536 L34.5896629,35.3588553 L33.9546067,35.3588553 L33.9546067,38.1714915 L34.6301124,38.1714915 L34.6301124,36.4397112 L35.9325843,38.1714915 L36.5676404,38.1714915 Z M39.5507865,35.9334367 L39.5507865,35.3548372 L37.1319101,35.3548372 L37.1319101,35.9334367 L37.9773034,35.9334367 L37.9773034,38.1714915 L38.6973034,38.1714915 L38.6973034,35.9334367 L39.5507865,35.9334367 Z M41.8179775,38.1714915 L42.6350562,38.1714915 L42.0404494,37.2433215 C42.3721348,37.0785814 42.5541573,36.7691914 42.5541573,36.3392599 C42.5541573,35.7124438 42.1253933,35.3588553 41.3770787,35.3588553 L40.1110112,35.3588553 L40.1110112,38.1714915 L40.8310112,38.1714915 L40.8310112,37.3799353 L41.3770787,37.3799353 L41.3973034,37.3799353 L41.8179775,38.1714915 Z M40.8310112,36.817408 L40.8310112,35.9213825 L41.3770787,35.9213825 C41.6885393,35.9213825 41.8705618,36.0700504 41.8705618,36.3633682 C41.8705618,36.660704 41.6885393,36.817408 41.3770787,36.817408 L40.8310112,36.817408 Z M45.5089888,35.9213825 L45.5089888,35.3588553 L43.2923596,35.3588553 L43.2923596,38.1714915 L45.5534831,38.1714915 L45.5534831,37.6089642 L44.0123596,37.6089642 L44.0123596,37.0424189 L45.3633708,37.0424189 L45.3633708,36.4798917 L44.0123596,36.4798917 L44.0123596,35.9213825 L45.5089888,35.9213825 Z" id="MOVING-CENTRE"></path>
                </g>
            </g>
        </g>
    </g>
</svg>