<?xml version="1.0" encoding="UTF-8" standalone="no"?>
<svg width="19px" height="28px" viewBox="0 0 19 28" version="1.1" xmlns="http://www.w3.org/2000/svg" xmlns:xlink="http://www.w3.org/1999/xlink">
    <!-- Generator: Sketch 39.1 (31720) - http://www.bohemiancoding.com/sketch -->
    <title>long arrow down</title>
    <desc>Created with Sketch.</desc>
    <defs></defs>
    <g id="Page-1" stroke="none" stroke-width="1" fill="none" fill-rule="evenodd">
        <g id="La-moving-v2-—--Design-(desktop)" transform="translate(-711.000000, -683.000000)" fill="#A7BDCB">
            <g id="Group-2" transform="translate(677.000000, 672.000000)">
                <g id="long-arrow-down" transform="translate(34.000000, 11.000000)">
                    <g id="arrow-right" transform="translate(9.366667, 14.133333) rotate(-270.000000) translate(-9.366667, -14.133333) translate(-4.133333, 5.133333)">
                        <g id="Layer_1" transform="translate(-0.000000, 0.000000)">
                            <g id="Group">
                                <path d="M17.7333333,17.7333333 C17.29,17.7333333 16.9944444,17.5855556 16.6988889,17.29 C16.1077778,16.6988889 16.1077778,15.8122222 16.6988889,15.2211111 L24.0877778,7.83222222 C24.6788889,7.24111111 25.5655556,7.24111111 26.1566667,7.83222222 C26.7477778,8.42333333 26.7477778,9.31 26.1566667,9.90111111 L18.7677778,17.29 C18.4722222,17.5855556 18.1766667,17.7333333 17.7333333,17.7333333 L17.7333333,17.7333333 Z" id="Shape"></path>
                                <path d="M25.1222222,10.3444444 C24.6788889,10.3444444 24.3833333,10.1966667 24.0877778,9.90111111 L16.6988889,2.51222222 C16.1077778,1.92111111 16.1077778,1.03444444 16.6988889,0.443333333 C17.29,-0.147777778 18.1766667,-0.147777778 18.7677778,0.443333333 L26.1566667,7.83222222 C26.7477778,8.42333333 26.7477778,9.31 26.1566667,9.90111111 C25.8611111,10.1966667 25.5655556,10.3444444 25.1222222,10.3444444 L25.1222222,10.3444444 Z" id="Shape"></path>
                                <path d="M25.1222222,10.3444444 L1.47777778,10.3444444 C0.591111111,10.3444444 8.8817842e-16,9.75333333 8.8817842e-16,8.86666667 C8.8817842e-16,7.98 0.591111111,7.38888889 1.47777778,7.38888889 L25.1222222,7.38888889 C26.0088889,7.38888889 26.6,7.98 26.6,8.86666667 C26.6,9.75333333 26.0088889,10.3444444 25.1222222,10.3444444 L25.1222222,10.3444444 Z" id="Shape"></path>
                            </g>
                        </g>
                    </g>
                </g>
            </g>
        </g>
    </g>
</svg>