<?xml version="1.0" encoding="UTF-8" standalone="no"?>
<svg width="10px" height="15px" viewBox="0 0 10 15" version="1.1" xmlns="http://www.w3.org/2000/svg" xmlns:xlink="http://www.w3.org/1999/xlink">
    <!-- Generator: Sketch 39.1 (31720) - http://www.bohemiancoding.com/sketch -->
    <title>Shape</title>
    <desc>Created with Sketch.</desc>
    <defs></defs>
    <g id="Page-1" stroke="none" stroke-width="1" fill="none" fill-rule="evenodd" opacity="0.359141791">
        <g id="La-moving-v2-—--Design-(desktop)" transform="translate(-665.000000, -4925.000000)" fill="#0E496F">
            <g id="Group-9" transform="translate(415.000000, 4814.000000)">
                <g id="Group-15" transform="translate(149.000000, 110.000000)">
                    <g id="Group-7">
                        <path d="M111,6 C111,3.23833333 108.760833,1 106,1 C103.239167,1 101,3.23833333 101,6 C101,9.33333333 106,15.1666667 106,15.1666667 C106,15.1666667 111,9.33333333 111,6 L111,6 Z M103.916667,6 C103.916667,4.85 104.85,3.91666667 106,3.91666667 C107.15,3.91666667 108.083333,4.85 108.083333,6 C108.083333,7.15 107.15,8.08333333 106,8.08333333 C104.85,8.08333333 103.916667,7.15 103.916667,6 L103.916667,6 Z" id="Shape"></path>
                    </g>
                </g>
            </g>
        </g>
    </g>
</svg>